<svg xmlns="http://www.w3.org/2000/svg" data-name="Layer 1" viewBox="0 0 650 512"><path fill="#dbe8ec" d="M555.82043,247.38528V229.19411A13.07945,13.07945,0,0,0,542.741,216.11466H528.575a13.07945,13.07945,0,0,1-13.07945-13.07945V184.84405A13.07945,13.07945,0,0,1,528.575,171.7646h1.45764a13.07945,13.07945,0,0,0,13.07945-13.07946V140.494a13.07945,13.07945,0,0,0-13.07945-13.07945H148.12546A13.07945,13.07945,0,0,0,135.046,140.494v18.19116a13.07945,13.07945,0,0,0,13.07945,13.07946h0a13.07945,13.07945,0,0,1,13.07946,13.07945v18.19116a13.07945,13.07945,0,0,1-13.07946,13.07945H97.54608a13.07945,13.07945,0,0,0-13.07946,13.07945v18.19117a13.07945,13.07945,0,0,0,13.07946,13.07945h19.84658a13.07945,13.07945,0,0,1,13.07945,13.07945v18.19125a13.07945,13.07945,0,0,1-13.07945,13.07945h-.048a13.07945,13.07945,0,0,0-13.07945,13.07945v18.19108a13.07945,13.07945,0,0,0,13.07945,13.07945h2.87138a13.07945,13.07945,0,0,1,13.07945,13.07945v18.19125A13.07945,13.07945,0,0,1,120.21608,393.515h-7.1245a13.07945,13.07945,0,0,0-13.07946,13.07945v18.19116a13.07946,13.07946,0,0,0,13.07946,13.07946h433.963A13.07945,13.07945,0,0,0,560.134,424.78562V406.59446A13.07945,13.07945,0,0,0,547.05459,393.515H525.71407a13.07945,13.07945,0,0,1-13.07945-13.07945V362.24431a13.07945,13.07945,0,0,1,13.07945-13.07945h26.73985a13.07945,13.07945,0,0,0,13.07946-13.07945V317.89433a13.07945,13.07945,0,0,0-13.07946-13.07945H544.3423a13.07945,13.07945,0,0,1-13.07945-13.07945V273.54418a13.07945,13.07945,0,0,1,13.07945-13.07945H542.741A13.07945,13.07945,0,0,0,555.82043,247.38528Z"/><circle cx="318.235" cy="263.436" r="173.618" fill="#dbe8ec"/><polygon fill="#b9d4db" points="532.98 427.196 326.86 427.196 334.545 408.434 523.434 408.434 532.98 427.196"/><path fill="#f9ae2b" d="M282.1504,390.29948H254.31684l-6.114-5.89386A13.77945,13.77945,0,0,1,247.138,365.715l.87613-1.06174a7.0791,7.0791,0,0,0,.116-8.86687l-.00875-.01119a7.07906,7.07906,0,0,1-1.02523-6.91781l7.22072-18.64477H282.1504l7.2193,18.64112a7.07908,7.07908,0,0,1-1.02889,6.9225l0,0a7.07909,7.07909,0,0,0,.11119,8.87021l.88165,1.069a13.77944,13.77944,0,0,1-1.067,18.688Z"/><path fill="#ea9918" d="M256.60648,377.99608l0,0a13.77919,13.77919,0,0,1-1.06489-18.69041l.87963-1.066a7.07251,7.07251,0,0,0,.11263-8.86276l-.00878-.0112a7.06974,7.06974,0,0,1-1.0271-6.91285l4.74046-12.24027h-5.92166l-7.22252,18.64981a7.06968,7.06968,0,0,0,1.02712,6.91271l.00878.0112a7.07257,7.07257,0,0,1-.11263,8.86285l-.87957,1.06591a13.77935,13.77935,0,0,0,1.06484,18.69057l6.114,5.89383h27.83356l6.11642-5.89607c.171-.16488.323-.34191.48382-.51342h-17.5375A21.04631,21.04631,0,0,1,256.60648,377.99608Z"/><path fill="#f9ae2b" d="M314.56078,427.19609H221.72293a2.29457,2.29457,0,0,1-1.59318-3.94587l4.37729-2.799a95.90566,95.90566,0,0,0,29.77561-30.15171l0,0H282.001l0,0a95.90583,95.90583,0,0,0,29.77562,30.15172l4.3773,2.799A2.29456,2.29456,0,0,1,314.56078,427.19609Z"/><path fill="#ea9918" d="M311.77669,420.45123q-2.37132-1.51632-4.642-3.16764H246.06394a2.29461,2.29461,0,0,1-1.5932-3.94593l4.37737-2.799a95.89524,95.89524,0,0,0,22.68872-20.23916H254.28277A95.90606,95.90606,0,0,1,224.507,420.45123l-4.37719,2.799a2.29455,2.29455,0,0,0,1.5932,3.94584h92.83766a2.29451,2.29451,0,0,0,1.5932-3.94584Z"/><path fill="#ee781d" d="M206.831,134.06355c1.56519,2.03772,3.05307,4.11567,4.58241,6.172l4.456,6.23751c2.96194,4.16282,5.85125,8.36336,8.70583,12.58183,4.58278,9.021,9.29422,17.97541,13.93508,26.96638L266.455,239.91533l27.94467,53.8941,13.97242,26.947c1.77863,4.77642,3.55707,9.55284,5.2554,14.37091l2.54478,7.2284c.81117,2.42874,1.65725,4.83936,2.4376,7.28415-1.54838-2.04649-3.03122-4.127-4.54861-6.18943l-4.44142-6.24507c-2.95915-4.16432-5.83818-8.37018-8.71685-12.57614l-13.97242-26.947-27.94467-53.89409-27.94466-53.8941c-4.6741-8.9737-9.27761-17.98409-14.00978-26.92772-1.80271-4.76391-3.57088-9.54566-5.26641-14.36522l-2.53022-7.23606C208.43561,138.93026,207.59457,136.517,206.831,134.06355Z"/><path fill="#409cb5" d="M268.2338,353.84655A114.76063,114.76063,0,0,1,215.58054,137.143a4.20672,4.20672,0,0,1,3.86088,7.47526,106.33511,106.33511,0,0,0,97.25127,189.13137,4.20655,4.20655,0,1,1,3.834,7.48871A115.26435,115.26435,0,0,1,268.2338,353.84655Z"/><circle cx="268.234" cy="239.098" r="92.644" fill="#409cb5"/><path fill="#25788e" d="M270.94179 351.13744l-.07469-3.05793c3.01087-.074 6.04863-.27338 9.02888-.59456l.3279 3.0415C277.1596 350.85659 274.03669 351.062 270.94179 351.13744zm-9.29889-.16283c-3.08929-.183-6.20212-.49821-9.25258-.93815l.43621-3.028c2.966.42725 5.99336.73423 8.99713.91275zm27.78053-1.8255l-.57887-3.00415c2.95448-.56916 5.91754-1.269 8.80667-2.0787l.8261 2.94589C295.50679 347.845 292.46082 348.56352 289.42343 349.14911zm-46.17515-.82536c-3.00676-.69539-6.02323-1.52821-8.96576-2.47457l.9374-2.91228c2.86111.92022 5.7943 1.72989 8.71778 2.40661zm64.07456-4.19176l-1.06737-2.86671c2.817-1.04869 5.62326-2.22809 8.34208-3.50534l1.30115 2.76812C313.10407 341.84191 310.21868 343.05492 307.32284 344.132zm-81.77229-1.50431c-2.84543-1.18688-5.68189-2.51193-8.43059-3.93707l1.408-2.71583c2.67438 1.3863 5.43317 2.67475 8.20054 3.8295zm-16.50526-8.55682c-2.612-1.641-5.19116-3.41347-7.66611-5.26809l1.83446-2.44844c2.4081 1.80458 4.91778 3.52924 7.45921 5.12618zm-14.87472-11.14568c-2.31025-2.04658-4.566-4.21417-6.70443-6.44375l2.20792-2.11829c2.08132 2.17057 4.27654 4.28065 6.52517 6.272zm-12.86137-13.4126c-1.94985-2.39689-3.82278-4.90284-5.56686-7.44763l2.52313-1.72988c1.69739 2.47606 3.5199 4.914 5.41747 7.24745zm-10.50406-15.32549c-1.53158-2.683-2.96829-5.46154-4.27094-8.258l2.77335-1.29219c1.26716 2.72106 2.66467 5.42345 4.15442 8.034zm-7.84088-16.841c-1.06662-2.89958-2.02231-5.87759-2.83983-8.84962l2.94962-.81116c.79511 2.88987 1.72429 5.785 2.7614 8.60462zm-4.92749-17.9136c-.5658-3.037-1.00911-6.13453-1.31759-9.20665l3.04411-.30474c.29989 2.987.73087 5.99858 1.28136 8.95119zM156.17766 240.943q-.01569-.91984-.01531-1.84491c0-2.47458.08365-4.98351.24835-7.45659l3.0527.20316c-.16022 2.40586-.24163 4.84608-.24163 7.25343q0 .89967.01456 1.79412zm4.26459-18.0951l-3.02506-.45712c.46235-3.05867 1.05877-6.13228 1.77321-9.13494l2.97651.70809C161.47189 216.88443 160.8919 219.87289 160.44225 222.84791zm4.18131-17.59316l-2.9078-.95159c.96205-2.93767 2.05854-5.86937 3.2596-8.71367l2.81816 1.1906C166.6257 199.54672 165.55909 202.39775 164.62356 205.25475zm7.03121-16.6595l-2.7106-1.41917c1.43111-2.73376 2.99556-5.44362 4.64963-8.05488l2.58438 1.63727C174.56892 183.29877 173.04705 185.93543 171.65477 188.59525zm9.678-15.27246l-2.44021-1.84491c1.8606-2.46114 3.84967-4.8767 5.91119-7.18023l2.27963 2.04061C185.07783 168.579 183.14291 170.92888 181.33273 173.32279zm12.05842-13.46638l-2.1026-2.22286c2.24564-2.12427 4.60593-4.17758 7.01478-6.10391l1.91064 2.39018C197.87086 155.79312 195.57517 157.7904 193.39115 159.85641zm14.114-11.28684L205.79988 146.03c2.5601-1.71869 5.22738-3.353 7.92791-4.85579l1.48825 2.67251C212.58947 145.30922 209.995 146.89794 207.50512 148.56957zM271.73356 168.277c-1.6727 2.87371-4.65809 7.98625-10.29378 9.882-5.00972 1.68134-8.26945-.48037-16.05827.41174-4.7094.54042-7.669.875-10.70552 2.88229-4.40928 2.91654-4.14331 6.11623-7.41163 9.47026-7.05122 7.24-20.27007 4.68369-20.9993 4.52924a28.38221 28.38221 0 01-14.63437-8.46663 92.52222 92.52222 0 0176.60292-40.53176c2.31605 0 4.62374.08582 6.89686.2488C276.03981 152.356 276.18557 160.65108 271.73356 168.277zM243.32263 204.09938c6.46754-7.99573 13.1244-16.22566 21.411-15.23475 6.53372.78132 12.61235 7.11949 13.9996 13.58776 1.7326 8.07851-4.83337 11.78841-2.4704 19.3523 1.60672 5.14338 4.94814 4.40536 9.882 11.94077 2.33072 3.55974 6.2667 9.57073 5.76449 17.29358-.115 1.76662-1.05049 12.67392-10.29378 17.29358-6.07465 3.036-13.68127 2.32862-18.52888-1.23531-5.59968-4.11693-3.80111-9.31282-9.05858-11.94072-4.79338-2.39585-7.584 1.27562-15.64654-.41184-2.972-.622-8.45751-1.77008-11.11724-5.76449-3.65368-5.48721-.107-13.54147 5.35275-25.94031C235.69256 216.05564 238.13155 210.51723 243.32263 204.09938zM360.87762 239.09822a93.09959 93.09959 0 01-2.92507 23.19535c-8.518 2.00725-18.55465 1.66411-26.515-3.43126-2.35061-1.50118-8.35532-5.34417-9.882-11.94083-1.14955-4.97526 1.3552-6.70806 1.64693-15.64653.12859-4.05745.30032-9.2901-2.05867-14.823-2.75376-6.45937-6.09915-6.60518-8.23511-11.529-3.191-7.35148.05152-16.66734 3.70561-21.82282 3.89452-5.49 9.94216-8.61244 16.55587-10.07073A92.31124 92.31124 0 01360.87762 239.09822zM297.26214 289.74364c-1.99061-3.28518-1.43374-8.78893 1.2352-10.70551 2.44988-1.7593 5.27778.51069 8.64684-1.647 2.47-1.58191 1.94517-3.43932 4.11756-4.52929 2.99732-1.50379 7.939.05414 10.29378 3.29408 3.0323 4.1719 1.169 10.29766-1.64715 13.58776C314.19644 296.417 300.885 295.72248 297.26214 289.74364zM269.82923 331.71647q-.79791.02575-1.59562.02576a92.52634 92.52634 0 01-75.83076-39.41655 27.95442 27.95442 0 015.62732-9.17c.75477-.815 10.19074-10.6542 21.411-8.2351a22.046 22.046 0 0110.29378 5.76449c3.62 3.68864 2.76214 5.7559 5.76449 8.2351 3.93745 3.25105 7.32578 1.26955 15.64654 2.88215 4.70081.90933 11.31453 2.19605 15.64654 6.9999 4.44342 4.92385 4.48635 11.32312 4.52928 17.70521C271.34758 319.58706 271.39052 325.96057 269.82923 331.71647z"/><path fill="#dbe8ec" d="M154.22562 267.9422c-1.19312 1.60449-2.33619 3.24316-3.45874 4.89062q-1.68861 2.4679-3.23438 5.01978a.66335.66335 0 01-1.136-.68531c.00757-.01245.01636-.02612.02466-.03784q1.73364-2.47668 3.60547-4.84082c1.24805-1.57544 2.55933-3.09765 3.88843-4.59863a.20021.20021 0 01.31055.2522zM142.14285 288.41729a44.31515 44.31515 0 00-3.11181 11.218 1.3154 1.3154 0 11-2.6106-.32544l.00635-.0459a43.859 43.859 0 013.81543-11.68969 1.03987 1.03987 0 011.90063.843zM140.21609 310.72979c.41773.82007.74927 1.68091 1.21851 2.46949a17.95842 17.95842 0 001.59228 2.24 20.03081 20.03081 0 004.11939 3.68652 1.67413 1.67413 0 11-1.88379 2.76807l-.03394-.02368a23.30912 23.30912 0 01-4.68457-4.4126 21.1513 21.1513 0 01-1.8142-2.69263c-.53125-.94507-.91065-1.9646-1.363-2.94433a1.51772 1.51772 0 012.729-1.32764zM157.56692 323.57818a65.08843 65.08843 0 0011.519 1.6753 1.78985 1.78985 0 01-.21436 3.57324 61.24684 61.24684 0 01-12.18237-1.85205 1.754 1.754 0 01.87768-3.39649zM180.86722 325.27838q5.90588-.30836 11.81372-1.03442a1.49941 1.49941 0 01.436 2.96606 120.17819 120.17819 0 01-12.04223 1.48877 1.71346 1.71346 0 01-.23731-3.4187zM204.4451 322.37457l11.66284-2.56689.04932-.01075a.94844.94844 0 01.45068 1.842l-11.64551 3.13843a1.22961 1.22961 0 01-.63989-2.37451c.01709-.00464.03418-.00879.05127-.01269zM227.6326 316.60089c3.78979-1.24292 7.5625-2.54419 11.33764-3.83814l.02442-.0083a.61885.61885 0 01.40674 1.16895c-3.77906 1.33472-7.56031 2.66211-11.32471 4.04785a.72046.72046 0 01-.49756-1.35229l.02124-.00757zM250.10916 308.366c3.65747-1.60157 7.28687-3.26612 10.92822-4.89771l.02417-.01074a.73289.73289 0 11.59937 1.33764l-.01148.00513c-3.687 1.57642-7.386 3.12012-11.05737 4.72656a.62847.62847 0 11-.50366-1.15161zM271.73221 298.08844l5.25781-2.8606c1.75342-.95044 3.50464-1.90356 5.23071-2.90283a1.18351 1.18351 0 111.18579 2.04858l-.03979.022-.01221.00634c-1.77856.93116-3.585 1.80787-5.38159 2.70191l-5.39087 2.676a.94634.94634 0 01-.87476-1.678zM292.48733 286.19293l10.07618-6.42065.04882-.03125a1.6311 1.6311 0 011.75293 2.75122l-.04345.02685-10.36646 6.15674a1.44175 1.44175 0 01-1.51318-2.4541zM312.40286 273.0108l9.60767-7.07007.06152-.04541a1.89829 1.89829 0 012.25024 3.05786l-.0249.01807-9.84131 6.99854a1.8002 1.8002 0 01-2.11157-2.916zM331.30691 258.48346l8.929-7.8711.07934-.06982a2.09318 2.09318 0 012.76832 3.14038l-.02564.02246-9.20972 7.8562a1.995 1.995 0 01-2.61523-3.01318zM348.75271 242.33429c2.76221-2.83057 5.41407-5.76075 7.97168-8.76026a2.13246 2.13246 0 013.26026 2.74951c-2.60156 3.11573-5.355 6.09156-8.178 8.98926a2.13289 2.13289 0 01-3.05542-2.9768zM363.97513 224.26935a88.43458 88.43458 0 006.09765-9.9983 1.94938 1.94938 0 013.48877 1.73951 83.01749 83.01749 0 01-6.20874 10.59131 2.05241 2.05241 0 01-3.39526-2.30689zM374.21438 203.51373a25.15441 25.15441 0 00.405-11.13135l-.00146-.00659a1.607 1.607 0 013.12842-.73486 28.04414 28.04414 0 01-.01856 12.66553 1.80112 1.80112 0 11-3.52319-.75049zM369.16482 182.92828a28.471 28.471 0 00-9.89794-5.70068 1.07954 1.07954 0 01.67211-2.05127 30.87875 30.87875 0 0111.03394 5.70874 1.36455 1.36455 0 11-1.75806 2.0874C369.19925 182.95929 369.18 182.942 369.16482 182.92828zM347.784 174.61383a92.36868 92.36868 0 00-11.90356-.698.3545.3545 0 01-.02637-.708 88.05416 88.05416 0 0112.07593-.095.75455.75455 0 11-.095 1.50611C347.81863 174.61773 347.79983 174.616 347.784 174.61383z"/><path fill="#d62828" d="M332.81626,140.91686c-3.98665,10.48356-33.31463,36.35929-39.31717,41.58127a.76066.76066,0,0,1-1.25594-.47761c-1.016-7.891-5.73987-46.71581-1.75322-57.19937a22.64172,22.64172,0,0,1,42.32633,16.09571Z"/><circle cx="311.653" cy="132.869" r="10.566" fill="#dbe8ec"/><path fill="#d62828" d="M238.70858,270.20411c.87157,6.39513-6.825,27.5448-8.42061,31.8361a.43773.43773,0,0,1-.76615.10441c-2.68579-3.70779-15.76138-22.02648-16.633-28.42161a13.0292,13.0292,0,0,1,25.81972-3.5189Z"/><circle cx="225.799" cy="271.964" r="6.08" fill="#dbe8ec"/><polygon fill="#409cb5" points="305.333 408.434 342.318 427.196 379.304 408.434 416.289 427.196 453.275 408.434 490.267 427.196 527.259 408.434 500.569 334.624 472.475 348.873 444.381 334.624 416.29 348.873 388.201 334.624 360.112 348.873 332.023 334.624 305.333 408.434"/><polygon fill="#409cb5" points="305.333 408.434 342.318 427.196 379.304 408.434 416.289 427.196 453.275 408.434 490.267 427.196 527.259 408.434 500.569 334.624 472.475 348.873 444.381 334.624 416.29 348.873 388.201 334.624 360.112 348.873 332.023 334.624 305.333 408.434"/><path fill="#3086a3" d="M323.437 358.367c4.97827 2.292 9.92456 4.64673 14.87012 7.00318l7.42163 3.52832 7.40161 3.56762h-.782q7.741-4.12646 15.5166-8.18383 7.7622-4.08437 15.55737-8.10328l.59449-.30615.61352.30615 15.69019 7.83179 15.65966 7.89136h-1.354l15.66187-7.89746q7.82409-3.96168 15.68969-7.84253l.62525-.31006.59961.31006c5.19311 2.68652 10.3894 5.36694 15.56225 8.0935 5.17847 2.71534 10.36182 5.42163 15.52075 8.1753l-.81713.00024q7.80908-3.80346 15.66821-7.50757l7.84741-3.72729c2.61182-1.25073 5.25073-2.44776 7.87476-3.67407-2.5398 1.39257-5.06446 2.81469-7.61646 4.1831l-7.64307 4.13013q-7.63623 4.14441-15.31347 8.20727l-.38989.20581-.42774-.20581c-5.26977-2.5354-10.51562-5.11816-15.76587-7.69189-5.2561-2.56275-10.48877-5.17114-15.72461-7.77393h1.22461q-7.78638 4.03712-15.59717 8.02466l-15.625 7.97-.67749.34546-.67675-.34546-15.617-7.97583-15.58667-8.03564h1.20777q-7.8468 3.91771-15.7295 7.76416-7.8684 3.87488-15.77026 7.68359l-.41089.198-.37134-.19824-7.24951-3.86719-7.22949-3.90674C333.04715 363.63336 328.22635 361.03155 323.437 358.367zM518.11063 383.55743l-8.35767 4.55542-8.38477 4.50244q-8.37818 4.51466-16.79492 8.95362l-.39184.20581-.42041-.20581-17.093-8.366-17.053-8.44507h1.21728c-5.63647 2.90942-11.26733 5.83008-16.92358 8.70044l-16.95044 8.647-.678.346-.67822-.346-16.946-8.64575c-5.6543-2.87109-11.28589-5.78662-16.91944-8.69849h1.2207l-17.05273 8.44581-17.093 8.36572-.4226.20679-.39332-.20679q-8.42028-4.42786-16.78955-8.95484l-8.38134-4.50366-8.3545-4.55664 8.61206 4.04859 8.58521 4.1018q8.5924 4.08838 17.1438 8.25611h-.81543l16.8501-8.845 16.89062-8.76514.59766-.3103.62329.3103c5.67749 2.82519 11.35693 5.64648 17.01367 8.51221l16.98706 8.56518h-1.356l16.99268-8.564c5.6582-2.86646 11.3418-5.68287 17.01978-8.51026l.62158-.30957.59619.30957 16.89014 8.76587 16.85034 8.84473h-.81177q8.54846-4.17919 17.14819-8.25733l8.58716-4.103z"/><path fill="#3086a3" d="M360.11185 348.87286c-.87769 6.66455-2.04371 13.26343-3.31153 19.83911-.60644 3.29419-1.31811 6.56446-1.98022 9.846l-2.14331 9.80859-2.301 9.77295c-.823 3.24512-1.59033 6.50269-2.46777 9.73511-1.69727 6.47827-3.49829 12.93286-5.59009 19.32153.874-6.66528 2.03857-13.2644 3.30713-19.84008.60522-3.29444 1.3208-6.56373 1.98071-9.84571l2.14722-9.80786 2.30517-9.77222c.82056-3.24536 1.592-6.502 2.468-9.73486C356.22415 361.71734 358.02371 355.26227 360.11185 348.87286zM388.2012 334.62384c-.12524 6.2251-.54419 12.41479-1.06665 18.592-.23364 3.092-.57373 6.17114-.86377 9.25635l-1.03 9.23608-1.19043 9.217c-.45386 3.06543-.85107 6.1377-1.36035 9.19629-.95947 6.12476-2.0249 12.23657-3.38647 18.3125.12158-6.22559.53906-12.41553 1.06225-18.59253.23242-3.09228.57666-6.1709.86426-9.25635l1.03394-9.23559 1.19458-9.21655c.45141-3.06568.85278-6.13746 1.36059-9.19629C385.77957 346.81231 386.84354 340.70025 388.2012 334.62384zM416.29031 348.87286c.62061 6.5271.94507 13.054 1.16553 19.58081.13818 3.26343.16895 6.5271.25 9.79053l.08276 9.79028-.0791 9.79053c-.08374 3.26343-.11035 6.52686-.25 9.79028-.22 6.52686-.54638 13.054-1.1709 19.58081-.62426-6.52685-.95044-13.05395-1.17016-19.58081-.13941-3.26342-.166-6.52685-.24951-9.79052l-.07862-9.79029.083-9.79052c.08154-3.26343.11231-6.52686.25049-9.79029C415.34451 361.92682 415.66946 355.39972 416.29031 348.87286zM444.38089 334.62384c1.35742 6.07666 2.4209 12.18847 3.3811 18.313.50781 3.05908.90894 6.13061 1.36035 9.19653l1.1941 9.21631 1.03344 9.23584c.2876 3.0852.63184 6.16382.864 9.2561.52295 6.17725.94018 12.36694 1.06152 18.59253-1.36133-6.07617-2.42651-12.188-3.38574-18.3125-.50928-3.05884-.90625-6.13086-1.35987-9.19629l-1.19018-9.217-1.02954-9.23608c-.2898-3.08521-.62988-6.16431-.86328-9.25635C444.92459 347.03863 444.50564 340.84894 444.38089 334.62384zM472.47513 348.87286c2.08789 6.38941 3.8872 12.84448 5.5852 19.32251.876 3.23291 1.64722 6.4895 2.468 9.73511l2.30469 9.772 2.14721 9.80786c.65967 3.282 1.375 6.55127 1.98047 9.84571 1.26831 6.57568 2.43286 13.1748 3.3064 19.84008-2.09155-6.38867-3.89233-12.84326-5.58936-19.32153-.87744-3.23242-1.64477-6.49-2.46753-9.73511l-2.301-9.77295-2.14307-9.80859c-.66211-3.28149-1.37353-6.55176-1.98-9.846C474.51858 362.13629 473.35257 355.53741 472.47513 348.87286z"/><rect width="9.16" height="11.402" x="338.496" y="378.956" fill="#f9ae2b" rx="1" transform="rotate(13.686 343.076 384.657)"/><rect width="9.16" height="11.402" x="459.962" y="359.705" fill="#f9ae2b" rx="1" transform="rotate(-7.426 464.542 365.407)"/><rect width="9.16" height="11.402" x="506.679" y="380.27" fill="#f9ae2b" rx="1" transform="rotate(-18.476 511.259 385.971)"/><path fill="#f9ae2b" d="M392.30265 395.63294l-7.05623-.985a1.01784 1.01784 0 00-1.14874.86721L382.09663 409.851l8.63733 4.38166 2.4359-17.451A1.0178 1.0178 0 00392.30265 395.63294zM318.4556 372.13971a28.76213 28.76213 0 014.55419-2.10132c.791-.28076 1.59327-.53589 2.40772-.748l2.48608-.52759a.39023.39023 0 11.16211.76343l-.02588.00464-.0498.00684-2.43652.342c-.81153.15161-1.61573.34643-2.41309.56811A34.938 34.938 0 00318.4556 372.13971zM337.95511 368.44073l9.99658.001a.85255.85255 0 01.00952 1.70508c-.009.00024-.02661-.00025-.0354-.00049l-10.00122-.35962a.67319.67319 0 01.02295-1.346zM357.94168 368.44293l4.96289-.12354 2.481-.06152c.82593-.00464 1.65674-.08838 2.4851-.1311l.02906-.00147a.99523.99523 0 01.10278 1.9878l-.00732.00024c-.83594.03711-1.66577.11475-2.50708.11426l-2.51685.04468-5.033.08837a.95848.95848 0 01-.041-1.9165zM377.71609 367.10675a72.78975 72.78975 0 009.6189-2.16187.87945.87945 0 01.53027 1.677 65.68153 65.68153 0 01-9.8396 2.396.96808.96808 0 01-.3103-1.91113zM396.47513 361.29913a51.55869 51.55869 0 008.31787-5.3147.472.472 0 01.60351.72535 47.77885 47.77885 0 01-8.24121 5.85839.72.72 0 01-.70337-1.25659zM412.0535 349.19586l1.49463-1.70728-1.33008 1.84327a.107.107 0 01-.17359-.125zM329.82425 420.85138l3.88281-3.14966a.11673.11673 0 11.147.1814l-.00561.00439zM341.88382 411.42779l8.38257-6.00659a.48547.48547 0 11.56543.78931l-.01221.00854-.01514.01L342.24 411.92584l-.0083.00562a.30612.30612 0 01-.3479-.50367zM358.89383 399.75934l8.84985-5.32056a.71019.71019 0 01.73194 1.21728l-.01.00586-.02906.01661-8.91382 5.10449-.021.012a.60047.60047 0 01-.60791-1.03564zM376.82742 389.51056a87.17626 87.17626 0 019.49414-4.21631.87206.87206 0 11.60718 1.635l-.00977.00342a97.57029 97.57029 0 00-9.3623 4.04614.81976.81976 0 01-.72925-1.46826zM396.39871 382.545l5.19531-.64185a32.713 32.713 0 015.27149-.08129.94458.94458 0 01-.11353 1.88574l-.00635-.00049c-.83691-.05591-1.67016-.08569-2.50292-.07983-.83179.01269-1.66895.03027-2.50879.12329l-5.02759.58471-.09155.01075a.907.907 0 01-.21607-1.801zM417.17483 383.15387c3.38672.60009 6.77735 1.19311 10.1521 1.8479a.98295.98295 0 01-.36792 1.93115l-10.11255-1.84521-.01879-.00342a.9807.9807 0 01.34716-1.93042zM437.43777 387.03912l10.0813 2.196a.9099.9099 0 01-.38061 1.77954l-.01245-.00244-10.06958-2.11915-.0149-.00317a.94642.94642 0 11.38965-1.85229zM457.53055 391.30206a25.655 25.655 0 004.97924.1958c.84009-.02441 1.67408-.17651 2.51172-.25781l2.51343-.2793.08081-.009a.82221.82221 0 01.19654 1.63257l-2.60059.3374c-.87012.09106-1.731.25171-2.60913.28442a27.44288 27.44288 0 01-5.30029-.17187l-.00684-.001a.87355.87355 0 01.22974-1.73193zM477.30594 388.30963a55.89873 55.89873 0 009.11206-4.51807.60312.60312 0 01.64184 1.02124 57.21673 57.21673 0 01-9.22778 4.82276.71332.71332 0 11-.541-1.32007zM494.5784 377.69757a49.06983 49.06983 0 006.822-7.58716.30785.30785 0 01.50415.35327 49.84654 49.84654 0 01-6.65967 7.94727.48827.48827 0 01-.6792-.70166zM506.595 361.27057l1.9436-4.59107v-.00024l.00025-.01.00024.01v.00024L506.8096 361.366a.11749.11749 0 11-.22046-.0813l.00171-.00489z"/><path fill="#f9ae2b" d="M511.25638,364.19073l-4.09009.53784-2.04028.25049c-.67627.10791-1.34961.24-2.02076.37525a56.80343,56.80343,0,0,0-7.89087,2.18261,54.45527,54.45527,0,0,0-7.39111,3.459q-3.613,1.95593-7.20972,3.97925c-4.7893,2.70068-9.60888,5.35424-14.43017,8.00488L451.67,390.84186c-2.4209,1.30395-4.928,2.49658-7.38745,3.74951l-3.70581,1.85766c-1.22632.63868-2.48364,1.20972-3.76709,1.73316-5.12476,2.14013-10.35645,3.88916-15.57983,5.61523-10.448,3.45777-20.94336,6.74585-31.47779,9.93945q15.41968-5.89233,30.968-11.41455c5.1582-1.89965,10.35767-3.678,15.34326-5.88061,2.52344-1.04956,4.91528-2.39746,7.36646-3.60864,2.43359-1.25708,4.88794-2.44361,7.3042-3.75733q14.54332-7.77868,29.1394-15.46753c2.44092-1.2705,4.87378-2.55835,7.354-3.77295a54.13351,54.13351,0,0,1,7.67627-3.22216,57.56166,57.56166,0,0,1,8.1106-1.77808c.68335-.09937,1.3667-.19531,2.05322-.26709l2.06616-.13794Z"/><path fill="#d62828" d="M444.3808,320.84954c0,8.58869-13.94852,35.09176-16.82349,40.46317a.58248.58248,0,0,1-1.02893,0c-2.875-5.3714-16.82353-31.87446-16.82354-40.46315a17.338,17.338,0,1,1,34.676,0Z"/><circle cx="427.043" cy="320.85" r="8.091" fill="#dbe8ec"/><path fill="#d62828" d="M527.06179,359.785c-1.0598,5.7586-13.68244,21.80737-16.27288,25.05408a.3971.3971,0,0,1-.68988-.127c-1.26483-3.95621-7.34681-23.44734-6.287-29.20594a11.82011,11.82011,0,0,1,23.24977,4.27883Z"/><circle cx="515.437" cy="357.646" r="5.516" fill="#dbe8ec"/><line x1="361.606" x2="391.926" y1="134.699" y2="134.699" fill="none" stroke="#b9d4db" stroke-linecap="round" stroke-miterlimit="10" stroke-width="3"/><line x1="361.606" x2="391.926" y1="143.438" y2="143.438" fill="none" stroke="#b9d4db" stroke-linecap="round" stroke-miterlimit="10" stroke-width="3"/><line x1="361.606" x2="391.926" y1="152.177" y2="152.177" fill="none" stroke="#b9d4db" stroke-linecap="round" stroke-miterlimit="10" stroke-width="3"/><line x1="509.783" x2="540.104" y1="276.869" y2="276.869" fill="none" stroke="#b9d4db" stroke-linecap="round" stroke-miterlimit="10" stroke-width="3"/><line x1="509.783" x2="540.104" y1="285.608" y2="285.608" fill="none" stroke="#b9d4db" stroke-linecap="round" stroke-miterlimit="10" stroke-width="3"/><line x1="509.783" x2="540.104" y1="294.347" y2="294.347" fill="none" stroke="#b9d4db" stroke-linecap="round" stroke-miterlimit="10" stroke-width="3"/><line x1="84.467" x2="114.787" y1="409.076" y2="409.076" fill="none" stroke="#b9d4db" stroke-linecap="round" stroke-miterlimit="10" stroke-width="3"/><line x1="84.467" x2="114.787" y1="417.815" y2="417.815" fill="none" stroke="#b9d4db" stroke-linecap="round" stroke-miterlimit="10" stroke-width="3"/><line x1="84.467" x2="114.787" y1="426.554" y2="426.554" fill="none" stroke="#b9d4db" stroke-linecap="round" stroke-miterlimit="10" stroke-width="3"/><circle cx="431.105" cy="239.2" r="12.96" fill="#b9d4db"/><circle cx="409.818" cy="267.555" r="6.72" fill="#b9d4db"/><circle cx="398.126" cy="224.65" r="9.6" fill="#b9d4db"/><circle cx="189.016" cy="394.793" r="15.42" fill="#b9d4db"/><circle cx="159.551" cy="383.81" r="8.032" fill="#b9d4db"/><circle cx="166.929" cy="356.507" r="4.633" fill="#b9d4db"/><circle cx="192.576" cy="359.785" r="11.107" fill="#b9d4db"/><circle cx="237.519" cy="113.257" r="15.42" fill="#b9d4db"/><circle cx="242.24" cy="82.168" r="8.032" fill="#b9d4db"/><circle cx="294.668" cy="93.799" r="6.952" fill="#b9d4db"/><circle cx="270.475" cy="83.802" r="4.633" fill="#b9d4db"/><circle cx="272.515" cy="109.578" r="11.107" fill="#b9d4db"/><path fill="#409cb5" d="M424.27608,193.68258c-2.71789,7.14713-22.71215,24.78783-26.80436,28.34789a.51857.51857,0,0,1-.85623-.3256c-.69265-5.37964-3.91314-31.84836-1.19525-38.99549a15.43592,15.43592,0,0,1,28.85584,10.9732Z"/><circle cx="409.848" cy="188.196" r="7.203" fill="#dbe8ec"/><path fill="#409cb5" d="M170.3944,347.50915c.98824,7.58234-8.27642,32.585-10.19648,37.65778a.51858.51858,0,0,1-.90837.1184c-3.15616-4.41123-18.51984-26.20394-19.50808-33.78627a15.43592,15.43592,0,1,1,30.61293-3.98991Z"/><circle cx="155.088" cy="349.504" r="7.203" fill="#dbe8ec"/></svg>